<?xml version="1.0" encoding="utf-8"?>
<!-- Generator: Adobe Illustrator 25.1.0, SVG Export Plug-In . SVG Version: 6.00 Build 0)  -->
<svg version="1.1" id="Capa_1" xmlns="http://www.w3.org/2000/svg" xmlns:xlink="http://www.w3.org/1999/xlink" x="0px" y="0px"
	 viewBox="0 0 512 512" style="enable-background:new 0 0 512 512;" xml:space="preserve">
<style type="text/css">
	.st0{fill:#B3D8F4;}
	.st1{fill:#5766CC;}
	.st2{fill:#717ED4;}
	.st3{fill:#C8E2FD;}
	.st4{fill:#E9F3FE;}
	.st5{fill:#A7D0FC;}
	.st6{fill:#19305C;}
	.st7{fill:#EF7575;}
	.st8{fill:#55A4F9;}
	.st9{fill:#ED6964;}
	.st10{fill:#86BEFB;}
	.st11{fill:#FF7C48;}
	.st12{fill:#1380E2;}
	.st13{fill:#D1462A;}
	.st14{fill:#FFC5AE;}
	.st15{fill:#57A4FF;}
</style>
<g>
	<path class="st0" d="M182.9,493.8c-99.7-33-171.7-127-171.7-237.8C11.2,117.9,123.1,5.9,261.2,5.6c138-0.2,250.7,112.3,250.8,250.2
		c0,24.7-3.6,48.6-10.2,71.2H404C301.4,327,211.2,395.1,182.9,493.8L182.9,493.8z"/>
	<path class="st1" d="M511,262.1v26.6c0,6.8-5.5,12.3-12.3,12.3h-6.1c-6.8,0-12.3-5.5-12.3-12.3v-26.6c0-6.8,5.5-12.3,12.3-12.3h6.1
		C505.5,249.9,511,255.4,511,262.1z M498.7,188.6h-6.1c-6.8,0-12.3,5.5-12.3,12.3v26.6c0,6.8,5.5,12.3,12.3,12.3h6.1
		c6.8,0,12.3-5.5,12.3-12.3v-26.6C511,194,505.5,188.6,498.7,188.6z M256.3,137.5h-42.7c-16.9,0-30.7,13.7-30.7,30.7v20.8
		c-5.3,1.4-9.2,6.2-9.2,11.9V258c0,5.7,3.9,10.5,9.2,11.9v223.8c13.2,4.4,26.8,7.7,40.9,9.8c0.3,0,0.5,0.1,0.8,0.1
		c26.6,3.7,50.3-17.2,50.3-44.1V156.1C274.9,145.8,266.6,137.5,256.3,137.5L256.3,137.5z"/>
	<path class="st2" d="M501.8,168.1V327c-8.7,29.5-22.7,56.7-40.9,80.6c-4.3,5.6-9.7,11.1-16.1,16.3c-88.3,72.2-221,8-221-106.1
		V168.1c0-16.9,13.7-30.7,30.7-30.7h216.7C488.1,137.5,501.8,151.2,501.8,168.1L501.8,168.1z"/>
	<path class="st3" d="M460.9,407.6c-45.7,60-118,98.8-199.3,98.8c-12.9,0-25.5-1-37.8-2.8v-315c0-5.6,4.6-10.2,10.2-10.2h216.7
		c5.6,0,10.2,4.6,10.2,10.2V407.6z"/>
	<path class="st4" d="M254.5,506.3V188.6c0-5.6,4.6-10.2,10.2-10.2h186c5.6,0,10.2,4.6,10.2,10.2v219.1
		c-45.7,60-118,98.8-199.3,98.8C259.2,506.4,256.8,506.3,254.5,506.3z"/>
	<path class="st5" d="M286.1,231.5v1c0,4-3.2,7.2-7.2,7.2h-26.6c-4,0-7.2-3.2-7.2-7.2v-1c0-4,3.2-7.2,7.2-7.2H279
		C282.9,224.3,286.1,227.5,286.1,231.5z M279,197.5h-26.6c-4,0-7.2,3.2-7.2,7.2v1c0,4,3.2,7.2,7.2,7.2H279c4,0,7.2-3.2,7.2-7.2v-1
		C286.1,200.7,282.9,197.5,279,197.5z"/>
	<path class="st1" d="M399.6,171.9c0,9.2-7.4,16.6-16.6,16.6h-81.2c-9.2,0-16.6-7.4-16.6-16.6c0-9.2,7.4-16.6,16.6-16.6H383
		C392.2,155.3,399.6,162.8,399.6,171.9z"/>
	<path class="st6" d="M321.9,163c0,4.2-3.4,7.7-7.7,7.7s-7.7-3.4-7.7-7.7s3.4-7.7,7.7-7.7S321.9,158.8,321.9,163z M370.5,155.3
		h-30.7c-4.2,0-7.7,3.4-7.7,7.7s3.4,7.7,7.7,7.7h30.7c4.2,0,7.7-3.4,7.7-7.7S374.7,155.3,370.5,155.3z"/>
	<path class="st5" d="M439.4,349.9v24.8c0,8.5-6.9,15.3-15.3,15.3h-24.8c-8.5,0-15.3-6.9-15.3-15.3v-24.8c0-8.5,6.9-15.3,15.3-15.3
		h24.8C432.6,334.5,439.4,341.4,439.4,349.9z"/>
	<path class="st7" d="M439.4,300.2c0,8.5-6.9,15.3-15.3,15.3h-24.8c-8.5,0-15.3-6.9-15.3-15.3v-24.8c0-8.5,6.9-15.3,15.3-15.3h24.8
		c8.5,0,15.3,6.9,15.3,15.3V300.2z"/>
	<path class="st8" d="M370.1,374.7c0,8.5-6.9,15.3-15.3,15.3h-24.8c-8.5,0-15.3-6.9-15.3-15.3v-24.8c0-8.5,6.9-15.3,15.3-15.3h24.8
		c8.5,0,15.3,6.9,15.3,15.3V374.7z"/>
	<path class="st9" d="M370.1,300.2c0,8.5-6.9,15.3-15.3,15.3h-24.8c-8.5,0-15.3-6.9-15.3-15.3v-24.8c0-8.5,6.9-15.3,15.3-15.3h24.8
		c8.5,0,15.3,6.9,15.3,15.3V300.2z"/>
	<path class="st10" d="M300.7,349.9v24.8c0,8.5-6.9,15.3-15.3,15.3h-24.8c-8.5,0-15.3-6.9-15.3-15.3v-24.8c0-8.5,6.9-15.3,15.3-15.3
		h24.8C293.9,334.5,300.7,341.4,300.7,349.9z"/>
	<path class="st10" d="M398.1,465.9c-7.8,0-14.1-6.3-14.1-14.1v-27.2c0-7.8,6.3-14.1,14.1-14.1h27.2c7.8,0,14.1,6.3,14.1,14.1v7.7
		c-4.4,4.4-9,8.7-13.7,12.8c-1.7,1.5-6-0.7-7.8,0.7c-1.8,1.5-1.1,6.6-3,8.1C409.6,458.1,403.9,462.2,398.1,465.9z"/>
	<path class="st7" d="M285.4,465.9h-24.8c-8.5,0-15.3-6.9-15.3-15.3v-24.8c0-8.5,6.9-15.3,15.3-15.3h24.8c8.5,0,15.3,6.9,15.3,15.3
		v24.8C300.7,459.1,293.9,465.9,285.4,465.9z M245.3,275.4v24.8c0,8.5,6.9,15.3,15.3,15.3h24.8c8.5,0,15.3-6.9,15.3-15.3v-24.8
		c0-8.5-6.9-15.3-15.3-15.3h-24.8C252.1,260.1,245.3,267,245.3,275.4z"/>
	<path class="st5" d="M427,438.9c0,2.2-0.5,4.3-1.3,6.2c-3.5,3-7.1,6-10.7,8.8c-1.1,0.2-2.2,0.4-3.3,0.4c-8.5,0-15.3-6.9-15.3-15.3
		s6.9-15.3,15.3-15.3S427,430.5,427,438.9z"/>
	<path class="st9" d="M370.1,425.8v24.8c0,8.5-6.9,15.3-15.3,15.3h-24.8c-8.5,0-15.3-6.9-15.3-15.3v-24.8c0-8.5,6.9-15.3,15.3-15.3
		h24.8C363.2,410.5,370.1,417.3,370.1,425.8z"/>
	<path class="st11" d="M288.3,287.8c0,8.5-6.9,15.3-15.3,15.3s-15.3-6.9-15.3-15.3s6.9-15.3,15.3-15.3S288.3,279.4,288.3,287.8z"/>
	<path class="st12" d="M357.7,362.3c0,8.5-6.9,15.3-15.3,15.3s-15.3-6.9-15.3-15.3c0-8.5,6.9-15.3,15.3-15.3
		S357.7,353.8,357.7,362.3z"/>
	<path class="st13" d="M357.7,438.9c0,8.5-6.9,15.3-15.3,15.3s-15.3-6.9-15.3-15.3s6.9-15.3,15.3-15.3S357.7,430.5,357.7,438.9z"/>
	<path class="st14" d="M427,287.8c0,8.5-6.9,15.3-15.3,15.3s-15.3-6.9-15.3-15.3s6.9-15.3,15.3-15.3S427,279.4,427,287.8z"/>
</g>
<path class="st15" d="M41.2,256c0-132.2,103.2-240.3,233.5-248.1c-5-0.3-10-0.4-15-0.4C122.5,7.5,11.2,118.8,11.2,256
	s111.3,248.5,248.5,248.5c5,0,10-0.1,15-0.4C144.5,496.3,41.2,388.2,41.2,256z"/>
</svg>
