<svg width="66" height="66" viewBox="0 0 66 66" fill="none" xmlns="http://www.w3.org/2000/svg">
<g filter="url(#filter0_d)">
<rect x="5" y="3" width="56" height="56" rx="28" fill="#FF6961"/>
</g>
<path d="M44 24.0079C44 23.2102 43.6971 22.4451 43.1579 21.881C42.6188 21.3169 41.8875 21 41.125 21H23.875C23.1125 21 22.3812 21.3169 21.8421 21.881C21.3029 22.4451 21 23.2102 21 24.0079V36.0397C21 36.8374 21.3029 37.6025 21.8421 38.1666C22.3812 38.7307 23.1125 39.0476 23.875 39.0476H37.6549C38.0361 39.0477 38.4017 39.2062 38.6712 39.4883L42.7724 43.7791C42.8728 43.8844 43.0009 43.9562 43.1403 43.9854C43.2798 44.0146 43.4244 43.9998 43.5558 43.943C43.6872 43.8861 43.7996 43.7898 43.8787 43.6661C43.9577 43.5424 44 43.397 44 43.2482V24.0079ZM26.0312 25.5119H38.9688C39.1594 25.5119 39.3422 25.5911 39.477 25.7322C39.6118 25.8732 39.6875 26.0644 39.6875 26.2639C39.6875 26.4633 39.6118 26.6546 39.477 26.7956C39.3422 26.9366 39.1594 27.0159 38.9688 27.0159H26.0312C25.8406 27.0159 25.6578 26.9366 25.523 26.7956C25.3882 26.6546 25.3125 26.4633 25.3125 26.2639C25.3125 26.0644 25.3882 25.8732 25.523 25.7322C25.6578 25.5911 25.8406 25.5119 26.0312 25.5119ZM26.0312 29.2718H38.9688C39.1594 29.2718 39.3422 29.351 39.477 29.4921C39.6118 29.6331 39.6875 29.8244 39.6875 30.0238C39.6875 30.2232 39.6118 30.4145 39.477 30.5555C39.3422 30.6966 39.1594 30.7758 38.9688 30.7758H26.0312C25.8406 30.7758 25.6578 30.6966 25.523 30.5555C25.3882 30.4145 25.3125 30.2232 25.3125 30.0238C25.3125 29.8244 25.3882 29.6331 25.523 29.4921C25.6578 29.351 25.8406 29.2718 26.0312 29.2718ZM26.0312 33.0317H33.2188C33.4094 33.0317 33.5922 33.111 33.727 33.252C33.8618 33.393 33.9375 33.5843 33.9375 33.7837C33.9375 33.9832 33.8618 34.1744 33.727 34.3154C33.5922 34.4565 33.4094 34.5357 33.2188 34.5357H26.0312C25.8406 34.5357 25.6578 34.4565 25.523 34.3154C25.3882 34.1744 25.3125 33.9832 25.3125 33.7837C25.3125 33.5843 25.3882 33.393 25.523 33.252C25.6578 33.111 25.8406 33.0317 26.0312 33.0317Z" fill="white"/>
<defs>
<filter id="filter0_d" x="0" y="0" width="66" height="66" filterUnits="userSpaceOnUse" color-interpolation-filters="sRGB">
<feFlood flood-opacity="0" result="BackgroundImageFix"/>
<feColorMatrix in="SourceAlpha" type="matrix" values="0 0 0 0 0 0 0 0 0 0 0 0 0 0 0 0 0 0 127 0"/>
<feOffset dy="2"/>
<feGaussianBlur stdDeviation="2.5"/>
<feColorMatrix type="matrix" values="0 0 0 0 0 0 0 0 0 0 0 0 0 0 0 0 0 0 0.2 0"/>
<feBlend mode="normal" in2="BackgroundImageFix" result="effect1_dropShadow"/>
<feBlend mode="normal" in="SourceGraphic" in2="effect1_dropShadow" result="shape"/>
</filter>
</defs>
</svg>
