<svg width="18" height="18" viewBox="0 0 18 18" fill="none" xmlns="http://www.w3.org/2000/svg">
<path d="M16.285 7.85999L14.61 7.35999C14.4942 6.95564 14.3349 6.56503 14.135 6.19499L14.955 4.65998C14.9858 4.60204 14.997 4.53573 14.9871 4.47088C14.9772 4.40602 14.9467 4.3461 14.9 4.29999L13.705 3.09998C13.6589 3.05332 13.599 3.02277 13.5341 3.01286C13.4693 3.00295 13.4029 3.01422 13.345 3.04499L11.82 3.85998C11.4463 3.65032 11.0506 3.48263 10.64 3.35998L10.14 1.70499C10.1189 1.64399 10.0789 1.59128 10.0259 1.55445C9.97287 1.51761 9.90954 1.49854 9.845 1.49999H8.155C8.09007 1.50029 8.02693 1.5213 7.97477 1.55997C7.92262 1.59864 7.88416 1.65295 7.865 1.71499L7.365 3.36498C6.95101 3.48697 6.55188 3.65467 6.175 3.86498L4.675 3.05499C4.61706 3.02422 4.55074 3.01295 4.48589 3.02286C4.42104 3.03277 4.36111 3.06332 4.315 3.10998L3.1 4.29499C3.05334 4.3411 3.02278 4.40102 3.01287 4.46588C3.00297 4.53073 3.01423 4.59704 3.045 4.65499L3.855 6.15499C3.64503 6.53028 3.47734 6.92771 3.355 7.33999L1.7 7.83999C1.63796 7.85914 1.58366 7.8976 1.54499 7.94976C1.50632 8.00192 1.4853 8.06506 1.485 8.12999V9.81998C1.4853 9.88491 1.50632 9.94805 1.54499 10.0002C1.58366 10.0524 1.63796 10.0908 1.7 10.11L3.365 10.61C3.48867 11.0154 3.65634 11.4061 3.865 11.775L3.045 13.345C3.01423 13.4029 3.00297 13.4692 3.01287 13.5341C3.02278 13.5989 3.05334 13.6589 3.1 13.705L4.295 14.9C4.34111 14.9466 4.40104 14.9772 4.46589 14.9871C4.53074 14.997 4.59706 14.9858 4.655 14.955L6.2 14.13C6.56548 14.3272 6.95101 14.4848 7.35 14.6L7.85 16.285C7.86916 16.347 7.90762 16.4013 7.95977 16.44C8.01193 16.4787 8.07507 16.4997 8.14 16.5H9.83C9.89493 16.4997 9.95807 16.4787 10.0102 16.44C10.0624 16.4013 10.1008 16.347 10.12 16.285L10.62 14.595C11.0156 14.4792 11.3977 14.3216 11.76 14.125L13.315 14.955C13.3729 14.9858 13.4393 14.997 13.5041 14.9871C13.569 14.9772 13.6289 14.9466 13.675 14.9L14.87 13.705C14.9167 13.6589 14.9472 13.5989 14.9571 13.5341C14.967 13.4692 14.9558 13.4029 14.925 13.345L14.095 11.795C14.2937 11.4313 14.4529 11.0475 14.57 10.65L16.255 10.15C16.317 10.1308 16.3713 10.0924 16.41 10.0402C16.4487 9.98805 16.4697 9.92491 16.47 9.85998V8.15498C16.4729 8.09281 16.4568 8.03122 16.4237 7.97849C16.3907 7.92576 16.3423 7.88441 16.285 7.85999ZM9 11.75C8.4561 11.75 7.92442 11.5887 7.47218 11.2865C7.01995 10.9844 6.66747 10.5549 6.45933 10.0524C6.25119 9.54987 6.19673 8.99693 6.30284 8.46349C6.40895 7.93004 6.67086 7.44004 7.05546 7.05544C7.44005 6.67085 7.93005 6.40894 8.4635 6.30283C8.99695 6.19672 9.54988 6.25118 10.0524 6.45932C10.5549 6.66746 10.9844 7.01993 11.2865 7.47217C11.5887 7.9244 11.75 8.45609 11.75 8.99999C11.75 9.72933 11.4603 10.4288 10.9445 10.9445C10.4288 11.4603 9.72935 11.75 9 11.75Z" fill="black"/>
</svg>
