<svg width="44" height="33" viewBox="0 0 44 33" fill="none" xmlns="http://www.w3.org/2000/svg">
<path d="M20.1667 22H23.8333V25.6667H20.1667V22ZM20.1667 7.33333H23.8333V18.3333H20.1667V7.33333ZM22 0C17.6239 0 13.4271 1.73839 10.3327 4.83274C7.23839 7.92709 5.5 12.1239 5.5 16.5C5.5 20.8761 7.23839 25.0729 10.3327 28.1673C13.4271 31.2616 17.6239 33 22 33C26.3761 33 30.5729 31.2616 33.6673 28.1673C36.7616 25.0729 38.5 20.8761 38.5 16.5C38.5 12.1239 36.7616 7.92709 33.6673 4.83274C30.5729 1.73839 26.3761 0 22 0V0ZM22 29.3333C14.9233 29.3333 9.16667 23.5767 9.16667 16.5C9.16667 9.42333 14.9233 3.66667 22 3.66667C29.0767 3.66667 34.8333 9.42333 34.8333 16.5C34.8333 23.5767 29.0767 29.3333 22 29.3333ZM37.5833 32.0833C41.5433 28.0683 44 22.5683 44 16.5C44 10.4317 41.5433 4.93167 37.5833 0.916667L35.6033 2.89667C39.0867 6.41667 41.25 11.2017 41.25 16.5C41.25 21.8167 39.0867 26.5833 35.6033 30.1033L37.5833 32.0833ZM8.39667 30.1033C4.91333 26.5833 2.75 21.8167 2.75 16.5C2.75 11.2017 4.91333 6.41667 8.39667 2.89667L6.41667 0.916667C2.45667 4.93167 0 10.4317 0 16.5C0 22.5683 2.45667 28.0683 6.41667 32.0833L8.39667 30.1033Z" fill="#FF6961"/>
</svg>
