<?xml version="1.0" encoding="utf-8"?>
<!-- Generator: Adobe Illustrator 25.1.0, SVG Export Plug-In . SVG Version: 6.00 Build 0)  -->
<svg version="1.1" id="Capa_1" xmlns="http://www.w3.org/2000/svg" xmlns:xlink="http://www.w3.org/1999/xlink" x="0px" y="0px"
	 viewBox="0 0 512 512" style="enable-background:new 0 0 512 512;" xml:space="preserve">
<style type="text/css">
	.st0{fill:#717ED4;}
	.st1{fill:#5766CC;}
	.st2{fill:#D5E3F4;}
	.st3{fill:#B3DAFE;}
	.st4{fill:#F47C7C;}
	.st5{fill:#384949;}
	.st6{fill:#678D98;}
	.st7{fill:#C8EFFE;}
	.st8{fill:#537983;}
</style>
<g>
	<path class="st0" d="M256,512v-30.8v-16.9v-322h218.3h27.3c3.4,0,6.1,2.7,6.1,6.1v156.9v40.1v145.5c0,3.4-2.7,6.1-6.1,6.1H282.3
		c-9.7,0-18.1,5.2-22.7,13C258.8,511.2,257.5,512,256,512L256,512z"/>
	<g>
		<path class="st1" d="M501.6,142.3h-27.3h-6.1c3.4,0,6.1,2.7,6.1,6.1v156.9v40.1v145.5c0,3.4-2.7,6.1-6.1,6.1h33.4
			c3.4,0,6.1-2.7,6.1-6.1V345.3v-40.1V148.4C507.7,145,505,142.3,501.6,142.3L501.6,142.3z"/>
	</g>
	<path class="st0" d="M256,512v-30.8v-16.9v-322H37.7H10.4c-3.4,0-6.1,2.7-6.1,6.1v156.9v40.1v145.5c0,3.4,2.7,6.1,6.1,6.1h219.3
		c9.7,0,18.1,5.2,22.7,13C253.2,511.2,254.5,512,256,512z"/>
	<path class="st2" d="M465.1,122.2H271.2c-8.4,0-15.2,6.8-15.2,15.2v326.9h2.5c2.7-4.2,7.4-6.9,12.7-6.9h193.9L465.1,122.2
		L465.1,122.2z"/>
	<path class="st3" d="M253.5,464.3h2.5V137.4c0-8.4-6.8-15.2-15.2-15.2h-196c-3.9,0-7.1,3.2-7.1,7.1v321c0,3.9,3.2,7.1,7.1,7.1h196
		C246.1,457.3,250.8,460.1,253.5,464.3z"/>
	<g>
		<path class="st3" d="M467.2,122.2H431c3.9,0,7.1,3.2,7.1,7.1v321c0,3.9-3.2,7.1-7.1,7.1h36.2c3.9,0,7.1-3.2,7.1-7.1v-321
			C474.3,125.4,471.1,122.2,467.2,122.2L467.2,122.2z"/>
	</g>
	<path class="st4" d="M416.2,419.6H314.1c-5.9,0-10.7-4.8-10.7-10.7v-75.4c0-5.9,4.8-10.7,10.7-10.7h102.1c5.9,0,10.7,4.8,10.7,10.7
		v75.4C426.8,414.8,422.1,419.6,416.2,419.6z"/>
	<path class="st4" d="M204.6,387.6H85c-5.9,0-10.7-4.8-10.7-10.7v-83.2c0-5.9,4.8-10.7,10.7-10.7h119.6c5.9,0,10.7,4.8,10.7,10.7
		V377C215.3,382.9,210.5,387.6,204.6,387.6z"/>
	<g>
		<path class="st5" d="M215.5,174.8h-141c-4.3,0-7.7-3.5-7.7-7.7s3.5-7.7,7.7-7.7h141c4.3,0,7.7,3.5,7.7,7.7
			S219.8,174.8,215.5,174.8z"/>
	</g>
	<g>
		<path class="st5" d="M216.4,218.1h-141c-4.3,0-7.7-3.5-7.7-7.7c0-4.3,3.5-7.7,7.7-7.7h141c4.3,0,7.7,3.5,7.7,7.7
			S220.7,218.1,216.4,218.1z"/>
	</g>
	<g>
		<path class="st5" d="M216.4,258.2h-141c-4.3,0-7.7-3.5-7.7-7.7c0-4.3,3.5-7.7,7.7-7.7h141c4.3,0,7.7,3.5,7.7,7.7
			C224.2,254.8,220.7,258.2,216.4,258.2z"/>
	</g>
	<g>
		<path class="st5" d="M216.5,424.9h-141c-4.3,0-7.7-3.5-7.7-7.7s3.5-7.7,7.7-7.7h141c4.3,0,7.7,3.5,7.7,7.7
			S220.8,424.9,216.5,424.9z"/>
	</g>
	<g>
		<path class="st5" d="M435.6,174.8H299c-4.3,0-7.7-3.5-7.7-7.7s3.5-7.7,7.7-7.7h136.6c4.3,0,7.7,3.5,7.7,7.7
			S439.9,174.8,435.6,174.8z"/>
	</g>
	<g>
		<path class="st5" d="M436.5,218.2h-141c-4.3,0-7.7-3.5-7.7-7.7c0-4.3,3.5-7.7,7.7-7.7h141c4.3,0,7.7,3.5,7.7,7.7
			S440.8,218.2,436.5,218.2z"/>
	</g>
	<g>
		<path class="st5" d="M436.5,258.2h-141c-4.3,0-7.7-3.5-7.7-7.7c0-4.3,3.5-7.7,7.7-7.7h141c4.3,0,7.7,3.5,7.7,7.7
			C444.2,254.8,440.8,258.2,436.5,258.2L436.5,258.2z"/>
	</g>
	<g>
		<path class="st5" d="M436.5,298.3h-141c-4.3,0-7.7-3.5-7.7-7.7s3.5-7.7,7.7-7.7h141c4.3,0,7.7,3.5,7.7,7.7
			S440.8,298.3,436.5,298.3L436.5,298.3z"/>
	</g>
	<path class="st6" d="M352.9,82.5h-17.3c-1.8-6.3-4.3-12.3-7.4-17.9l12.2-12.2c3.1-3.1,3.1-8.2,0-11.3L320,20.5
		c-3.1-3.1-8.2-3.1-11.3,0l-12.2,12.2c-5.6-3.1-11.6-5.7-17.9-7.4V8c0-4.4-3.6-8-8-8h-29c-4.4,0-8,3.6-8,8v17.3
		c-6.3,1.8-12.3,4.3-17.9,7.4l-12.2-12.2c-3.1-3.1-8.2-3.1-11.3,0L171.6,41c-3.1,3.1-3.1,8.2,0,11.3l12.2,12.2
		c-3.1,5.6-5.7,11.6-7.4,17.9h-17.3c-4.4,0-8,3.6-8,8v29c0,4.4,3.6,8,8,8h17.3c1.8,6.3,4.3,12.3,7.4,17.9l-12.2,12.2
		c-3.1,3.1-3.1,8.2,0,11.3l20.5,20.5c3.1,3.1,8.2,3.1,11.3,0l12.2-12.2c3.4,1.9,7,3.6,10.6,5c2.4,0.9,4.8,1.7,7.3,2.4v17.3
		c0,4.4,3.6,8,8,8h29c4.4,0,8-3.6,8-8v-17.3c6.3-1.8,12.3-4.3,17.9-7.4l12.2,12.2c3.1,3.1,8.2,3.1,11.3,0l20.5-20.5
		c3.1-3.1,3.1-8.2,0-11.3l-12.2-12.2c3.1-5.6,5.7-11.6,7.4-17.9h17.3c4.4,0,8-3.6,8-8v-29C360.9,86,357.4,82.5,352.9,82.5
		L352.9,82.5z"/>
	<circle class="st7" cx="256" cy="104.9" r="34.8"/>
	<g>
		<path class="st8" d="M352.9,82.5h-17.3c-1.8-6.3-4.3-12.3-7.4-17.9l12.2-12.2c3.1-3.1,3.1-8.2,0-11.3L320,20.5
			c-3.1-3.1-8.2-3.1-11.3,0l-8.9,8.9L311.2,41c3.1,3.1,3.1,8.2,0,11.3L299,64.5c3.1,5.6,5.7,11.6,7.4,17.9h17.3c4.4,0,8,3.6,8,8v29
			c0,4.4-3.6,8-8,8h-17.3c-1.8,6.3-4.3,12.3-7.4,17.9l12.2,12.2c3.1,3.1,3.1,8.2,0,11.3l-11.5,11.5l8.9,8.9c3.1,3.1,8.2,3.1,11.3,0
			l20.5-20.5c3.1-3.1,3.1-8.2,0-11.3l-12.2-12.2c3.1-5.6,5.7-11.6,7.4-17.9h17.3c4.4,0,8-3.6,8-8v-29
			C360.9,86,357.4,82.5,352.9,82.5z"/>
	</g>
	<path class="st3" d="M256,70.2c-3,0-6,0.4-8.8,1.1c15,3.9,26,17.5,26,33.7s-11.1,29.8-26,33.7c2.8,0.7,5.7,1.1,8.8,1.1
		c19.2,0,34.8-15.6,34.8-34.8S275.2,70.2,256,70.2L256,70.2z"/>
</g>
</svg>
