<svg width="19" height="23" viewBox="0 0 19 23" fill="none" xmlns="http://www.w3.org/2000/svg">
<path d="M16.2199 13.6205C16.5522 13.6204 16.8814 13.6857 17.1885 13.8128C17.4956 13.9399 17.7746 14.1262 18.0097 14.3612C18.2447 14.5961 18.4312 14.8751 18.5584 15.1821C18.6856 15.4892 18.7511 15.8183 18.7511 16.1506V17.1834C18.751 17.8285 18.5492 18.4575 18.174 18.9823C16.4347 21.4156 13.5941 22.6205 9.74663 22.6205C5.89688 22.6205 3.0585 21.4145 1.32375 18.9789C0.950615 18.4549 0.750064 17.8277 0.75 17.1845V16.1495C0.749852 15.8171 0.815187 15.488 0.942272 15.1809C1.06936 14.8738 1.2557 14.5948 1.49066 14.3597C1.72562 14.1246 2.00459 13.9382 2.31163 13.811C2.61867 13.6837 2.94777 13.6183 3.28013 13.6183H16.2188L16.2199 13.6205ZM9.74663 0.125C11.2385 0.125 12.6692 0.717632 13.7241 1.77252C14.779 2.82742 15.3716 4.25816 15.3716 5.75C15.3716 7.24184 14.779 8.67258 13.7241 9.72748C12.6692 10.7824 11.2385 11.375 9.74663 11.375C8.25478 11.375 6.82404 10.7824 5.76915 9.72748C4.71426 8.67258 4.12163 7.24184 4.12163 5.75C4.12163 4.25816 4.71426 2.82742 5.76915 1.77252C6.82404 0.717632 8.25478 0.125 9.74663 0.125V0.125Z" fill="white"/>
</svg>
