<svg width="27" height="27" viewBox="0 0 27 27" fill="none" xmlns="http://www.w3.org/2000/svg">
<path d="M12.375 16.875H14.625V19.125H12.375V16.875ZM12.375 7.875H14.625V14.625H12.375V7.875ZM13.5 3.375C10.8147 3.375 8.23935 4.44174 6.34054 6.34054C4.44174 8.23935 3.375 10.8147 3.375 13.5C3.375 16.1853 4.44174 18.7606 6.34054 20.6595C8.23935 22.5583 10.8147 23.625 13.5 23.625C16.1853 23.625 18.7606 22.5583 20.6595 20.6595C22.5583 18.7606 23.625 16.1853 23.625 13.5C23.625 10.8147 22.5583 8.23935 20.6595 6.34054C18.7606 4.44174 16.1853 3.375 13.5 3.375V3.375ZM13.5 21.375C9.1575 21.375 5.625 17.8425 5.625 13.5C5.625 9.1575 9.1575 5.625 13.5 5.625C17.8425 5.625 21.375 9.1575 21.375 13.5C21.375 17.8425 17.8425 21.375 13.5 21.375ZM23.0625 23.0625C25.4925 20.5987 27 17.2237 27 13.5C27 9.77625 25.4925 6.40125 23.0625 3.9375L21.8475 5.1525C23.985 7.3125 25.3125 10.2487 25.3125 13.5C25.3125 16.7625 23.985 19.6875 21.8475 21.8475L23.0625 23.0625ZM5.1525 21.8475C3.015 19.6875 1.6875 16.7625 1.6875 13.5C1.6875 10.2487 3.015 7.3125 5.1525 5.1525L3.9375 3.9375C1.5075 6.40125 0 9.77625 0 13.5C0 17.2237 1.5075 20.5987 3.9375 23.0625L5.1525 21.8475Z" fill="white"/>
</svg>
