<svg width="24" height="24" viewBox="0 0 24 24" fill="none" xmlns="http://www.w3.org/2000/svg">
<path d="M13 6L18 11L8.493 20.507C8.16378 20.178 7.9778 19.7324 7.97555 19.267C7.97331 18.8016 8.15497 18.3541 8.481 18.022L8.479 18.019C7.789 18.695 6.679 18.692 5.994 18.006C5.67005 17.6818 5.48512 17.2441 5.47839 16.7858C5.47167 16.3275 5.6437 15.8846 5.958 15.551L5.95 15.543C5.256 16.193 4.17 16.183 3.494 15.507L13 6ZM20.586 5.586L18.414 3.414C18.0388 3.0393 17.5302 2.82884 17 2.82884C16.4698 2.82884 15.9612 3.0393 15.586 3.414L14 5L19 10L20.586 8.414C21.366 7.634 21.366 6.367 20.586 5.586ZM3 18V21H6C6 20.2044 5.68393 19.4413 5.12132 18.8787C4.55871 18.3161 3.79565 18 3 18Z" fill="black"/>
</svg>
