<svg width="56" height="56" viewBox="0 0 56 56" fill="none" xmlns="http://www.w3.org/2000/svg">
<path d="M39 21.0079C39 20.2102 38.6971 19.4451 38.1579 18.881C37.6188 18.3169 36.8875 18 36.125 18H18.875C18.1125 18 17.3812 18.3169 16.8421 18.881C16.3029 19.4451 16 20.2102 16 21.0079V33.0397C16 33.8374 16.3029 34.6025 16.8421 35.1666C17.3812 35.7307 18.1125 36.0476 18.875 36.0476H32.6549C33.0361 36.0477 33.4017 36.2062 33.6712 36.4883L37.7724 40.7791C37.8728 40.8844 38.0009 40.9562 38.1403 40.9854C38.2798 41.0146 38.4244 40.9998 38.5558 40.943C38.6872 40.8861 38.7996 40.7898 38.8787 40.6661C38.9577 40.5424 39 40.397 39 40.2482V21.0079ZM21.0312 22.5119H33.9688C34.1594 22.5119 34.3422 22.5911 34.477 22.7322C34.6118 22.8732 34.6875 23.0644 34.6875 23.2639C34.6875 23.4633 34.6118 23.6546 34.477 23.7956C34.3422 23.9366 34.1594 24.0159 33.9688 24.0159H21.0312C20.8406 24.0159 20.6578 23.9366 20.523 23.7956C20.3882 23.6546 20.3125 23.4633 20.3125 23.2639C20.3125 23.0644 20.3882 22.8732 20.523 22.7322C20.6578 22.5911 20.8406 22.5119 21.0312 22.5119ZM21.0312 26.2718H33.9688C34.1594 26.2718 34.3422 26.351 34.477 26.4921C34.6118 26.6331 34.6875 26.8244 34.6875 27.0238C34.6875 27.2232 34.6118 27.4145 34.477 27.5555C34.3422 27.6966 34.1594 27.7758 33.9688 27.7758H21.0312C20.8406 27.7758 20.6578 27.6966 20.523 27.5555C20.3882 27.4145 20.3125 27.2232 20.3125 27.0238C20.3125 26.8244 20.3882 26.6331 20.523 26.4921C20.6578 26.351 20.8406 26.2718 21.0312 26.2718ZM21.0312 30.0317H28.2188C28.4094 30.0317 28.5922 30.111 28.727 30.252C28.8618 30.393 28.9375 30.5843 28.9375 30.7837C28.9375 30.9832 28.8618 31.1744 28.727 31.3154C28.5922 31.4565 28.4094 31.5357 28.2188 31.5357H21.0312C20.8406 31.5357 20.6578 31.4565 20.523 31.3154C20.3882 31.1744 20.3125 30.9832 20.3125 30.7837C20.3125 30.5843 20.3882 30.393 20.523 30.252C20.6578 30.111 20.8406 30.0317 21.0312 30.0317Z" fill="white"/>
</svg>
