<?xml version="1.0" encoding="utf-8"?>
<!-- Generator: Adobe Illustrator 25.1.0, SVG Export Plug-In . SVG Version: 6.00 Build 0)  -->
<svg version="1.1" id="Capa_1" xmlns="http://www.w3.org/2000/svg" xmlns:xlink="http://www.w3.org/1999/xlink" x="0px" y="0px"
	 viewBox="0 0 512 512" style="enable-background:new 0 0 512 512;" xml:space="preserve">
<style type="text/css">
	.st0{fill:#B3DAFE;}
	.st1{fill:#717ED4;}
	.st2{fill:#5766CC;}
	.st3{fill:#FE7AB6;}
	.st4{fill:#FE3D97;}
	.st5{fill:#FFDFCF;}
	.st6{fill:#FFCEBF;}
	.st7{fill:#FE9738;}
	.st8{fill:#FE7701;}
	.st9{fill:#596C76;}
	.st10{fill:#465A61;}
	.st11{fill:#FDB97E;}
	.st12{fill:#D8ECFE;}
</style>
<g>
	<path class="st0" d="M373.4,394.5h-48.7V117.5h48.7c4.2,0,7.6-3.4,7.6-7.6s-3.4-7.6-7.6-7.6h-48.7V63.4c0-4.2-3.4-7.6-7.6-7.6
		s-7.6,3.4-7.6,7.6v38.9H71.6V63.4c0-4.2-3.4-7.6-7.6-7.6s-7.6,3.4-7.6,7.6v38.9H7.6c-4.2,0-7.6,3.4-7.6,7.6s3.4,7.6,7.6,7.6h48.7
		v276.9H7.6c-4.2,0-7.6,3.4-7.6,7.6s3.4,7.6,7.6,7.6h48.7v38.9c0,4.2,3.4,7.6,7.6,7.6s7.6-3.4,7.6-7.6v-38.9h237.8v38.9
		c0,4.2,3.4,7.6,7.6,7.6s7.6-3.4,7.6-7.6v-38.9h48.7c4.2,0,7.6-3.4,7.6-7.6S377.6,394.5,373.4,394.5z M71.6,394.5V117.5h237.8v276.9
		H71.6z"/>
	<path class="st1" d="M309.2,169.7L206,110.1c-9.5-5.5-21.4-5.5-30.9,0L71.9,169.6c-9.5,5.5-15.5,15.7-15.5,26.7v119.2
		c0,11,5.9,21.2,15.4,26.7L175,401.9c4.8,2.8,10.1,4.1,15.4,4.1c5.3,0,10.7-1.4,15.4-4.1l103.3-59.6c9.5-5.5,15.5-15.7,15.5-26.7
		V196.4C324.6,185.5,318.7,175.2,309.2,169.7L309.2,169.7z M260.6,224.6v62.9c0,5.6-3,10.8-7.8,13.6l-54.5,31.4
		c-4.8,2.8-10.8,2.8-15.7,0L128.2,301c-4.8-2.8-7.8-8-7.8-13.6v-62.9c0-5.6,3-10.8,7.8-13.6l54.5-31.4c2.4-1.4,5.1-2.1,7.8-2.1
		c2.7,0,5.4,0.7,7.8,2.1l54.5,31.5C257.6,213.8,260.6,219,260.6,224.6L260.6,224.6z"/>
	<path class="st2" d="M309.2,169.7L206,110.1c-8.4-4.8-18.5-5.4-27.4-1.7c1.2,0.5,2.4,1.1,3.5,1.7l103.2,59.6
		c9.5,5.5,15.4,15.8,15.4,26.7v119.2c0,11-5.9,21.2-15.5,26.7L182.1,402c-1.1,0.7-2.3,1.2-3.5,1.7c3.8,1.6,7.9,2.4,11.9,2.4
		c5.3,0,10.7-1.4,15.4-4.1l103.3-59.6c9.5-5.5,15.5-15.7,15.5-26.7V196.4C324.6,185.5,318.7,175.2,309.2,169.7L309.2,169.7z"/>
	<g>
		<path class="st3" d="M500,124.9c16,16,16,42,0,58l-12.2,12.2l-58-58l12.2-12.2C458,108.9,484,108.9,500,124.9z"/>
		<path class="st4" d="M500,124.9c-1.6-1.6-3.2-3-5-4.2c7.8,12.2,3.5,31.9-10.9,46.3l-12.2,12.2l15.9,15.9l12.2-12.2
			C516,166.9,516,140.9,500,124.9z"/>
		<path class="st5" d="M410.9,156L277.6,289.2l-24.8,69.5c-2.9,8.3,5,16.2,13.3,13.3l69.5-24.8L468.9,214L410.9,156z"/>
		<path class="st6" d="M451.5,197L318.3,330.2l-62.9,31.3c-1.2,0.6-2.4,0.9-3.4,1.1c0.2,6.6,7,11.9,13.9,9.4l69.5-24.8L468.6,214
			L451.5,197z"/>
		<path class="st7" d="M277.6,289.2c23.5-4.2,33.2,5.5,29,29c23.5-4.2,33.2,5.5,29,29L468.9,214l-58-58L277.6,289.2z"/>
		<path class="st8" d="M335.7,346.9L468.6,214l-17-17l-123,123C335.7,324.2,338.1,333.2,335.7,346.9L335.7,346.9z"/>
		<path class="st9" d="M261.5,334.5l-8.6,24.2c-2.9,8.3,5,16.2,13.3,13.3l24.2-8.6L261.5,334.5z"/>
		<path class="st10" d="M252.2,362.6c0.2,5.4,4.6,9.8,10,10.1c1.2,0,2.4-0.2,3.6-0.6l24.4-8.7l-12.8-12.8l-22.1,11
			C254.3,362.1,253.2,362.4,252.2,362.6z"/>
		<path class="st11" d="M410.9,156L277.6,289.2c23.5-4.2,33.2,5.5,29,29L439.9,185L410.9,156z"/>
		<path class="st12" d="M496.9,186.5L438.4,128c-7.7-7.7-20.1-7.7-27.8,0s-7.7,20.1,0,27.8l58.5,58.5c7.7,7.7,20.1,7.7,27.8,0
			S504.5,194.2,496.9,186.5z"/>
		<path class="st0" d="M496.9,186.5l-16.6-16.6c5.9,5.9,4.5,16.9-3.2,24.6s-18.7,9.1-24.6,3.2l16.6,16.6c7.7,7.7,20.1,7.7,27.8,0
			S504.5,194.2,496.9,186.5L496.9,186.5z"/>
	</g>
</g>
</svg>
