<svg width="245" height="31" viewBox="0 0 245 31" fill="none" xmlns="http://www.w3.org/2000/svg">
<path d="M15.9083 27H16.9652V23.5909H18.8743C18.951 23.5909 19.0234 23.5909 19.0958 23.5866L20.9368 27H22.164L20.191 23.3949C21.3032 23.0156 21.8231 22.108 21.8231 20.9489C21.8231 19.4062 20.9027 18.2727 18.8572 18.2727H15.9083V27ZM16.9652 22.6364V19.2102H18.8231C20.2379 19.2102 20.7833 19.9006 20.7833 20.9489C20.7833 21.9972 20.2379 22.6364 18.8402 22.6364H16.9652ZM26.142 27.1364C27.9148 27.1364 29.1079 25.7898 29.1079 23.7614C29.1079 21.7159 27.9148 20.3693 26.142 20.3693C24.3693 20.3693 23.1761 21.7159 23.1761 23.7614C23.1761 25.7898 24.3693 27.1364 26.142 27.1364ZM26.142 26.233C24.7954 26.233 24.1818 25.0739 24.1818 23.7614C24.1818 22.4489 24.7954 21.2727 26.142 21.2727C27.4886 21.2727 28.1023 22.4489 28.1023 23.7614C28.1023 25.0739 27.4886 26.233 26.142 26.233ZM30.885 27H31.8565V25.9943H31.9759C32.1975 26.3523 32.6236 27.1364 33.885 27.1364C35.5213 27.1364 36.6634 25.8239 36.6634 23.7443C36.6634 21.6818 35.5213 20.3693 33.8679 20.3693C32.5895 20.3693 32.1975 21.1534 31.9759 21.4943H31.8906V18.2727H30.885V27ZM31.8736 23.7273C31.8736 22.2614 32.5213 21.2727 33.7486 21.2727C35.027 21.2727 35.6577 22.3466 35.6577 23.7273C35.6577 25.125 35.01 26.233 33.7486 26.233C32.5384 26.233 31.8736 25.2102 31.8736 23.7273ZM40.2333 27.1534C41.3754 27.1534 41.972 26.5398 42.1765 26.1136H42.2277V27H43.2333V22.6875C43.2333 20.608 41.6481 20.3693 40.8129 20.3693C39.8243 20.3693 38.6993 20.7102 38.1879 21.9034L39.1424 22.2443C39.364 21.767 39.8882 21.2557 40.847 21.2557C41.7717 21.2557 42.2277 21.7457 42.2277 22.5852V22.6193C42.2277 23.1051 41.7333 23.0625 40.5402 23.2159C39.3257 23.3736 38.0004 23.642 38.0004 25.142C38.0004 26.4205 38.989 27.1534 40.2333 27.1534ZM40.3868 26.25C39.5856 26.25 39.0061 25.892 39.0061 25.1932C39.0061 24.4261 39.7049 24.1875 40.489 24.0852C40.9152 24.0341 42.0572 23.9148 42.2277 23.7102V24.6307C42.2277 25.4489 41.5799 26.25 40.3868 26.25Z" fill="#212121"/>
<ellipse cx="29.5" cy="5" rx="5.5" ry="5" fill="#8EDCB9"/>
<path d="M74.8361 27H80.1713V26.0625H75.8929V23.0966H79.8304V22.1591H75.8929V19.2102H80.1031V18.2727H74.8361V27ZM86.6134 21.9205C86.2981 20.9915 85.5907 20.3693 84.2952 20.3693C82.9146 20.3693 81.8918 21.1534 81.8918 22.2614C81.8918 23.1648 82.4288 23.7699 83.6305 24.0511L84.7214 24.3068C85.3819 24.4602 85.693 24.7756 85.693 25.2273C85.693 25.7898 85.0964 26.25 84.1589 26.25C83.3364 26.25 82.8208 25.8963 82.6418 25.1932L81.6873 25.4318C81.9217 26.544 82.8379 27.1364 84.1759 27.1364C85.6972 27.1364 86.7327 26.3054 86.7327 25.1761C86.7327 24.2642 86.1617 23.6889 84.9941 23.4034L84.0225 23.1648C83.2469 22.973 82.8975 22.7131 82.8975 22.2102C82.8975 21.6477 83.4941 21.2386 84.2952 21.2386C85.1731 21.2386 85.5353 21.7244 85.71 22.1761L86.6134 21.9205ZM91.0112 27.1364C92.46 27.1364 93.4146 26.25 93.585 25.0909H92.5794C92.3919 25.8068 91.7953 26.233 91.0112 26.233C89.818 26.233 89.0509 25.2443 89.0509 23.7273C89.0509 22.2443 89.835 21.2727 91.0112 21.2727C91.8975 21.2727 92.4259 21.8182 92.5794 22.4148H93.585C93.4146 21.1875 92.3748 20.3693 90.9941 20.3693C89.2214 20.3693 88.0453 21.767 88.0453 23.7614C88.0453 25.7216 89.1703 27.1364 91.0112 27.1364ZM97.8198 27.1364C99.5925 27.1364 100.786 25.7898 100.786 23.7614C100.786 21.7159 99.5925 20.3693 97.8198 20.3693C96.0471 20.3693 94.8539 21.7159 94.8539 23.7614C94.8539 25.7898 96.0471 27.1364 97.8198 27.1364ZM97.8198 26.233C96.4732 26.233 95.8596 25.0739 95.8596 23.7614C95.8596 22.4489 96.4732 21.2727 97.8198 21.2727C99.1664 21.2727 99.78 22.4489 99.78 23.7614C99.78 25.0739 99.1664 26.233 97.8198 26.233ZM103.432 18.2727H102.426V27H103.432V18.2727ZM107.306 27.1534C108.448 27.1534 109.044 26.5398 109.249 26.1136H109.3V27H110.306V22.6875C110.306 20.608 108.72 20.3693 107.885 20.3693C106.897 20.3693 105.772 20.7102 105.26 21.9034L106.215 22.2443C106.436 21.767 106.96 21.2557 107.919 21.2557C108.844 21.2557 109.3 21.7457 109.3 22.5852V22.6193C109.3 23.1051 108.806 23.0625 107.612 23.2159C106.398 23.3736 105.073 23.642 105.073 25.142C105.073 26.4205 106.061 27.1534 107.306 27.1534ZM107.459 26.25C106.658 26.25 106.078 25.892 106.078 25.1932C106.078 24.4261 106.777 24.1875 107.561 24.0852C107.987 24.0341 109.13 23.9148 109.3 23.7102V24.6307C109.3 25.4489 108.652 26.25 107.459 26.25Z" fill="#212121"/>
<ellipse cx="92.5" cy="5" rx="5.5" ry="5" fill="#A8E1C8"/>
<path d="M129.885 27H135.22V26.0625H130.942V23.0966H134.879V22.1591H130.942V19.2102H135.152V18.2727H129.885V27ZM137.776 20.4545H136.617L138.696 23.7273L136.617 27H137.776L139.344 24.4602L140.912 27H142.071L139.958 23.7273L142.071 20.4545H140.912L139.344 23.1307L137.776 20.4545ZM146.458 20.4545H145.061V18.8864H144.055V20.4545H143.066V21.3068H144.055V25.3977C144.055 26.5398 144.975 27.0852 145.828 27.0852C146.203 27.0852 146.441 27.017 146.578 26.9659L146.373 26.0625C146.288 26.0795 146.152 26.1136 145.93 26.1136C145.487 26.1136 145.061 25.9773 145.061 25.125V21.3068H146.458V20.4545ZM148.077 27H149.082V22.858C149.082 21.9716 149.781 21.3239 150.736 21.3239C151.004 21.3239 151.281 21.375 151.349 21.392V20.3693C151.234 20.3608 150.97 20.3523 150.821 20.3523C150.037 20.3523 149.355 20.7955 149.116 21.4432H149.048V20.4545H148.077V27ZM154.573 27.1534C155.715 27.1534 156.312 26.5398 156.516 26.1136H156.567V27H157.573V22.6875C157.573 20.608 155.988 20.3693 155.153 20.3693C154.164 20.3693 153.039 20.7102 152.528 21.9034L153.482 22.2443C153.704 21.767 154.228 21.2557 155.187 21.2557C156.112 21.2557 156.567 21.7457 156.567 22.5852V22.6193C156.567 23.1051 156.073 23.0625 154.88 23.2159C153.665 23.3736 152.34 23.642 152.34 25.142C152.34 26.4205 153.329 27.1534 154.573 27.1534ZM154.727 26.25C153.925 26.25 153.346 25.892 153.346 25.1932C153.346 24.4261 154.045 24.1875 154.829 24.0852C155.255 24.0341 156.397 23.9148 156.567 23.7102V24.6307C156.567 25.4489 155.92 26.25 154.727 26.25ZM162.259 27.1364C163.588 27.1364 164.56 26.4716 164.867 25.483L163.895 25.2102C163.639 25.892 163.047 26.233 162.259 26.233C161.078 26.233 160.264 25.4702 160.217 24.0682H164.969V23.642C164.969 21.2045 163.52 20.3693 162.156 20.3693C160.384 20.3693 159.207 21.767 159.207 23.7784C159.207 25.7898 160.367 27.1364 162.259 27.1364ZM160.217 23.1989C160.286 22.1804 161.006 21.2727 162.156 21.2727C163.247 21.2727 163.946 22.0909 163.946 23.1989H160.217ZM171.24 21.9205C170.925 20.9915 170.218 20.3693 168.922 20.3693C167.542 20.3693 166.519 21.1534 166.519 22.2614C166.519 23.1648 167.056 23.7699 168.258 24.0511L169.348 24.3068C170.009 24.4602 170.32 24.7756 170.32 25.2273C170.32 25.7898 169.723 26.25 168.786 26.25C167.963 26.25 167.448 25.8963 167.269 25.1932L166.314 25.4318C166.549 26.544 167.465 27.1364 168.803 27.1364C170.324 27.1364 171.36 26.3054 171.36 25.1761C171.36 24.2642 170.789 23.6889 169.621 23.4034L168.65 23.1648C167.874 22.973 167.525 22.7131 167.525 22.2102C167.525 21.6477 168.121 21.2386 168.922 21.2386C169.8 21.2386 170.162 21.7244 170.337 22.1761L171.24 21.9205ZM175.638 27.1364C177.087 27.1364 178.042 26.25 178.212 25.0909H177.206C177.019 25.8068 176.422 26.233 175.638 26.233C174.445 26.233 173.678 25.2443 173.678 23.7273C173.678 22.2443 174.462 21.2727 175.638 21.2727C176.525 21.2727 177.053 21.8182 177.206 22.4148H178.212C178.042 21.1875 177.002 20.3693 175.621 20.3693C173.848 20.3693 172.672 21.767 172.672 23.7614C172.672 25.7216 173.797 27.1364 175.638 27.1364ZM180.521 27.0682C180.943 27.0682 181.288 26.723 181.288 26.3011C181.288 25.8793 180.943 25.5341 180.521 25.5341C180.099 25.5341 179.754 25.8793 179.754 26.3011C179.754 26.723 180.099 27.0682 180.521 27.0682Z" fill="#212121"/>
<ellipse cx="155.5" cy="5" rx="5.5" ry="5" fill="#55846F"/>
<path d="M203.233 27L204.111 24.5284H207.639L208.517 27H209.625L206.421 18.2727H205.33L202.125 27H203.233ZM204.443 23.5909L205.841 19.6534H205.909L207.307 23.5909H204.443ZM211.959 18.2727H210.954V27H211.959V18.2727ZM216.753 20.4545H215.356V18.8864H214.35V20.4545H213.361V21.3068H214.35V25.3977C214.35 26.5398 215.27 27.0852 216.123 27.0852C216.498 27.0852 216.736 27.017 216.873 26.9659L216.668 26.0625C216.583 26.0795 216.447 26.1136 216.225 26.1136C215.782 26.1136 215.356 25.9773 215.356 25.125V21.3068H216.753V20.4545ZM218.372 27H219.377V22.858C219.377 21.9716 220.076 21.3239 221.031 21.3239C221.299 21.3239 221.576 21.375 221.644 21.392V20.3693C221.529 20.3608 221.265 20.3523 221.116 20.3523C220.332 20.3523 219.65 20.7955 219.411 21.4432H219.343V20.4545H218.372V27ZM225.487 27.1364C226.817 27.1364 227.788 26.4716 228.095 25.483L227.123 25.2102C226.868 25.892 226.275 26.233 225.487 26.233C224.307 26.233 223.493 25.4702 223.446 24.0682H228.197V23.642C228.197 21.2045 226.748 20.3693 225.385 20.3693C223.612 20.3693 222.436 21.767 222.436 23.7784C222.436 25.7898 223.595 27.1364 225.487 27.1364ZM223.446 23.1989C223.514 22.1804 224.234 21.2727 225.385 21.2727C226.476 21.2727 227.175 22.0909 227.175 23.1989H223.446ZM234.469 21.9205C234.154 20.9915 233.446 20.3693 232.151 20.3693C230.77 20.3693 229.747 21.1534 229.747 22.2614C229.747 23.1648 230.284 23.7699 231.486 24.0511L232.577 24.3068C233.237 24.4602 233.549 24.7756 233.549 25.2273C233.549 25.7898 232.952 26.25 232.014 26.25C231.192 26.25 230.676 25.8963 230.497 25.1932L229.543 25.4318C229.777 26.544 230.693 27.1364 232.031 27.1364C233.553 27.1364 234.588 26.3054 234.588 25.1761C234.588 24.2642 234.017 23.6889 232.85 23.4034L231.878 23.1648C231.103 22.973 230.753 22.7131 230.753 22.2102C230.753 21.6477 231.35 21.2386 232.151 21.2386C233.029 21.2386 233.391 21.7244 233.566 22.1761L234.469 21.9205Z" fill="#212121"/>
<ellipse cx="218.5" cy="5" rx="5.5" ry="5" fill="#D4F9ED"/>
</svg>
