<?xml version="1.0" encoding="utf-8"?>
<!-- Generator: Adobe Illustrator 25.1.0, SVG Export Plug-In . SVG Version: 6.00 Build 0)  -->
<svg version="1.1" id="Capa_1" xmlns="http://www.w3.org/2000/svg" xmlns:xlink="http://www.w3.org/1999/xlink" x="0px" y="0px"
	 viewBox="0 0 512 512" style="enable-background:new 0 0 512 512;" xml:space="preserve">
<style type="text/css">
	.st0{fill:#717ED4;}
	.st1{fill:#5766CC;}
	.st2{fill:#ED6964;}
	.st3{fill:#77D1B3;}
	.st4{fill:#E9A761;}
	.st5{fill:#F9BF64;}
</style>
<g>
	<path class="st0" d="M443.9,187.5v74.5c0,4.2,1.7,8.3,4.8,11.2l17.1,16.2c3.1,2.9,4.8,7,4.8,11.2v195.9c0,8.5-6.9,15.5-15.5,15.5
		H56.9c-8.5,0-15.5-6.9-15.5-15.5V114.2c0-4.1,1.6-8,4.5-10.9l98.7-98.7c2.9-2.9,6.8-4.5,10.9-4.5h299.6c8.5,0,15.5,6.9,15.5,15.5
		v133.5c0,4.2-1.7,8.3-4.8,11.2l-17.1,16.2C445.6,179.2,443.9,183.3,443.9,187.5z"/>
	<path class="st1" d="M448.7,176.3l17.1-16.2c3.1-2.9,4.8-7,4.8-11.2V15.5c0-8.5-6.9-15.5-15.5-15.5h-31.9c8.5,0,15.5,6.9,15.5,15.5
		v133.5c0,4.2-1.7,8.3-4.8,11.2l-17.1,16.2c-3.1,2.9-4.8,7-4.8,11.2v74.5c0,4.2,1.7,8.3,4.8,11.2l17.1,16.2c3.1,2.9,4.8,7,4.8,11.2
		v195.9c0,8.5-6.9,15.5-15.5,15.5h31.9c8.5,0,15.5-6.9,15.5-15.5V300.7c0-4.2-1.7-8.3-4.8-11.2l-17.1-16.2c-3.1-2.9-4.8-7-4.8-11.2
		v-74.5C443.9,183.3,445.6,179.2,448.7,176.3L448.7,176.3z"/>
	<path class="st2" d="M424.3,54.4c0-3.1-2.5-5.7-5.7-5.7H161c-3.1,0-5.7,2.5-5.7,5.7v48.7c0,3.1,2.5,5.7,5.7,5.7h257.7
		c3.1,0,5.7-2.5,5.7-5.7V54.4z"/>
	<path class="st3" d="M103.2,198v241.9c0,5.7,4.6,10.3,10.3,10.3H354c5.7,0,10.3-4.6,10.3-10.3V198c0-5.7-4.6-10.3-10.3-10.3H113.5
		C107.8,187.7,103.2,192.3,103.2,198z"/>
	<g>
		<path class="st4" d="M282.1,48.7h15.5v60.1h-15.5V48.7z"/>
		<path class="st4" d="M349.3,48.7h15.5v60.1h-15.5V48.7z"/>
		<path class="st4" d="M214.8,48.7h15.5v60.1h-15.5V48.7z"/>
	</g>
	<path class="st5" d="M322,256.1c-1.9,0-3.8-0.7-5.3-2.1l-21.4-20l-21.4,20c-3.1,2.9-8,2.7-10.9-0.4c-2.9-3.1-2.7-8,0.4-10.9
		l22.2-20.7c5.5-5.1,14.1-5.1,19.6,0l22.2,20.7c3.1,2.9,3.3,7.8,0.4,10.9C326.2,255.3,324.1,256.1,322,256.1L322,256.1z"/>
</g>
</svg>
