<?xml version="1.0" encoding="utf-8"?>
<!-- Generator: Adobe Illustrator 25.1.0, SVG Export Plug-In . SVG Version: 6.00 Build 0)  -->
<svg version="1.1" id="Capa_1" xmlns="http://www.w3.org/2000/svg" xmlns:xlink="http://www.w3.org/1999/xlink" x="0px" y="0px"
	 viewBox="0 0 512 512" style="enable-background:new 0 0 512 512;" xml:space="preserve">
<style type="text/css">
	.st0{fill:#B3D8F4;}
	.st1{fill:#57A4FF;}
	.st2{fill:#FF7956;}
	.st3{fill:#FFB655;}
	.st4{fill:#FF3F62;}
	.st5{fill:#006DF0;}
	.st6{fill:#FFFFFF;}
	.st7{fill:#5766CC;}
</style>
<circle class="st0" cx="256" cy="256" r="248.5"/>
<g>
	<polygon class="st1" points="428.9,340.6 429,340.5 429,175.5 286,92.9 286,258.1 	"/>
	<polygon class="st1" points="428.9,340.6 286,258.1 143.1,340.6 286,423.1 	"/>
	<polygon class="st1" points="286,92.9 143,175.5 143,340.5 143.1,340.6 286,258.1 	"/>
</g>
<polygon class="st2" points="398.9,340.6 399,340.5 399,175.5 256,92.9 256,258.1 "/>
<polygon class="st1" points="398.9,340.6 256,258.1 113.1,340.6 256,423.1 "/>
<polygon class="st3" points="256,92.9 113,175.5 113,340.5 113.1,340.6 256,258.1 "/>
<path class="st1" d="M37.5,256C37.5,123.8,140.7,15.7,271,7.9c-5-0.3-10-0.4-15-0.4C118.8,7.5,7.5,118.8,7.5,256
	S118.8,504.5,256,504.5c5,0,10-0.1,15-0.4C140.7,496.3,37.5,388.2,37.5,256z"/>
<polygon class="st4" points="286,258.1 286,110.3 256,92.9 256,258.1 398.9,340.6 399,340.5 399,323.3 "/>
<polygon class="st5" points="143.1,340.6 271,266.8 256,258.1 113.1,340.6 256,423.1 271,414.4 "/>
<polygon class="st2" points="143,175.5 256,110.3 256,92.9 113,175.5 113,340.5 113.1,340.6 143,323.3 "/>
<g>
	<path class="st6" d="M281,136.2L281,136.2c2.1-3.6,6.7-4.8,10.2-2.7l36.7,21.2c3.6,2.1,4.8,6.7,2.7,10.2v0
		c-2.1,3.6-6.7,4.8-10.2,2.7l-36.7-21.2C280.2,144.4,278.9,139.8,281,136.2z"/>
	<path class="st6" d="M339.3,169.9L339.3,169.9c2.1-3.6,6.7-4.8,10.2-2.7v0c3.6,2.1,4.8,6.7,2.7,10.2v0c-2.1,3.6-6.7,4.8-10.2,2.7
		l0,0C338.5,178.1,337.2,173.5,339.3,169.9z"/>
	<path class="st6" d="M361,182.4L361,182.4c2.1-3.6,6.7-4.8,10.2-2.7l0,0c3.6,2.1,4.8,6.7,2.7,10.2v0c-2.1,3.6-6.7,4.8-10.2,2.7v0
		C360.1,190.6,358.9,186,361,182.4z"/>
</g>
<path class="st7" d="M197.8,360.6L197.8,360.6c-2.1,3.6-6.7,4.8-10.2,2.7l0,0c-3.6-2.1-4.8-6.7-2.7-10.2v0c2.1-3.6,6.7-4.8,10.2-2.7
	h0C198.6,352.4,199.8,357,197.8,360.6z"/>
<path class="st7" d="M176.1,348.1L176.1,348.1c-2.1,3.6-6.7,4.8-10.2,2.7h0c-3.6-2.1-4.8-6.7-2.7-10.2l0,0c2.1-3.6,6.7-4.8,10.2-2.7
	l0,0C177,339.9,178.2,344.5,176.1,348.1z"/>
<path class="st7" d="M219.4,373.1L219.4,373.1c-2.1,3.6-6.7,4.8-10.2,2.7l0,0c-3.6-2.1-4.8-6.7-2.7-10.2h0c2.1-3.6,6.7-4.8,10.2-2.7
	v0C220.3,364.9,221.5,369.5,219.4,373.1z"/>
<path class="st7" d="M241.1,385.6L241.1,385.6c-2.1,3.6-6.7,4.8-10.2,2.7h0c-3.6-2.1-4.8-6.7-2.7-10.2l0,0c2.1-3.6,6.7-4.8,10.2-2.7
	h0C241.9,377.4,243.2,382,241.1,385.6z"/>
<path class="st7" d="M140.8,287.1l44.2-25.5c3.6-2.1,8.2-0.8,10.2,2.7l0,0c2.1,3.6,0.8,8.2-2.7,10.2l-44.2,25.5
	c-3.6,2.1-8.2,0.8-10.2-2.7h0C136,293.8,137.2,289.2,140.8,287.1z"/>
<path class="st7" d="M437,75C388.7,26.6,324.4,0,256,0S123.3,26.6,75,75C26.6,123.3,0,187.6,0,256s26.6,132.7,75,181
	c48.4,48.4,112.6,75,181,75s132.7-26.6,181-75c48.4-48.4,75-112.6,75-181S485.4,123.3,437,75z M256,497C123.1,497,15,388.9,15,256
	S123.1,15,256,15s241,108.1,241,241S388.9,497,256,497z"/>
<path class="st7" d="M98.2,424.6c41.1,38.5,93.8,60.3,150.1,62.2c4.2,0.1,7.7-3.3,7.7-7.5v0c0-4-3.2-7.4-7.2-7.5
	c-52.6-1.7-101.9-22.1-140.3-58.1c-2.9-2.8-7.5-2.6-10.4,0.2h0C95.1,416.9,95.2,421.7,98.2,424.6z"/>
<g>
	<path class="st6" d="M424.7,98.3c0,0-0.1-0.1-0.1-0.1c-2.9-3.1-7.7-3.1-10.7-0.2l-0.1,0.1c-2.8,2.8-2.9,7.4-0.2,10.3
		c0,0,0.1,0.1,0.1,0.1c2.7,2.9,7.3,3.2,10.3,0.5l0.1-0.1C427.3,106.2,427.6,101.4,424.7,98.3z"/>
	<path class="st6" d="M445.1,137.1L445.1,137.1c-3.4,2.2-4.5,6.7-2.4,10.2c18,30.7,28,65.5,29.2,101.5c0.1,4.1,3.4,7.3,7.5,7.3l0,0
		c4.2,0,7.6-3.5,7.5-7.7c-1.3-38.5-12-75.8-31.3-108.7C453.4,135.9,448.6,134.8,445.1,137.1z"/>
	<path class="st6" d="M439.5,128.8l0.1-0.1c3.4-2.4,4.2-7.2,1.7-10.5c0,0-0.1-0.1-0.1-0.1c-2.5-3.4-7.3-4-10.6-1.3l-0.1,0.1
		c-3.1,2.5-3.7,7-1.3,10.2c0,0,0.1,0.1,0.1,0.1C431.7,130.3,436.2,131.1,439.5,128.8z"/>
</g>
<path class="st7" d="M256,43.6L256,43.6c-4.1,0-7.5,3.4-7.5,7.5v196.4c0,2.7-1.4,5.1-3.7,6.5L73,355c-3.6,2.1-4.8,6.7-2.7,10.3l0,0
	c2.1,3.6,6.7,4.8,10.3,2.7l171.6-101c2.3-1.4,5.3-1.4,7.6,0l171.6,101c3.6,2.1,8.2,0.9,10.3-2.7l0,0c2.1-3.6,0.9-8.2-2.7-10.3
	L267.2,253.9c-2.3-1.3-3.7-3.8-3.7-6.5V51.1C263.5,46.9,260.1,43.6,256,43.6z"/>
<path class="st7" d="M252.3,412.3l-108.9-62.9c-3.6-2.1-8.2-0.8-10.2,2.7l0,0c-2.1,3.6-0.8,8.2,2.7,10.2l116.4,67.2
	c2.3,1.3,5.2,1.3,7.5,0l116.4-67.2c3.6-2.1,4.8-6.7,2.7-10.2h0c-2.1-3.6-6.7-4.8-10.2-2.7l-108.9,62.9
	C257.4,413.6,254.6,413.6,252.3,412.3z"/>
<path class="st7" d="M124.3,177.6l109-62.9c3.6-2.1,4.8-6.7,2.7-10.2v0c-2.1-3.6-6.7-4.8-10.2-2.7L109.3,169
	c-2.3,1.3-3.7,3.8-3.7,6.5v134.6c0,4.1,3.4,7.5,7.5,7.5h0c4.1,0,7.5-3.4,7.5-7.5V184.1C120.5,181.5,122,179,124.3,177.6z"/>
<path class="st7" d="M399,317.6L399,317.6c4.1,0,7.5-3.4,7.5-7.5V175.5c0-2.7-1.4-5.2-3.7-6.5l-116.5-67.2
	c-3.6-2.1-8.2-0.8-10.2,2.7l0,0c-2.1,3.6-0.8,8.2,2.7,10.2l109,62.9c2.3,1.3,3.7,3.8,3.7,6.5v125.9
	C391.5,314.2,394.8,317.6,399,317.6z"/>
</svg>
