<svg width="154" height="162" viewBox="0 0 154 162" fill="none" xmlns="http://www.w3.org/2000/svg">
<path d="M143.26 161.998H10.1982C4.70225 161.998 0.247253 157.543 0.247253 152.047V9.95243C0.247253 4.45646 4.70257 0.00146484 10.1982 0.00146484H143.26C148.756 0.00146484 153.211 4.45678 153.211 9.95243V152.047C153.211 157.543 148.756 161.998 143.26 161.998V161.998Z" fill="#C5D3DD"/>
<path d="M153.21 9.95255V152.048C153.21 157.543 148.756 162 143.261 162H136.734C142.229 162 146.683 157.543 146.683 152.048V9.95255C146.683 4.45721 142.229 0 136.734 0H143.261C148.756 0 153.21 4.45721 153.21 9.95255V9.95255Z" fill="#B6C4CF"/>
<path d="M77.2896 14.3354C69.5029 14.2829 61.7088 15.1976 54.0243 17.0976C42.6378 19.9127 31.6683 24.6161 22.1581 31.3311C14.0214 37.0764 18.0711 49.8779 28.0319 49.8779H125.404C135.308 49.8779 139.447 37.1229 131.366 31.3969C122.377 25.028 112.076 20.4582 101.351 17.5975C93.4247 15.4839 85.3611 14.3898 77.2896 14.3354V14.3354Z" fill="#8D9CA8"/>
<path d="M63.0299 38.5581C62.112 39.7601 61.6927 40.3088 61.9718 41.2153C62.1351 41.7465 62.5375 42.1544 63.077 42.3344C63.2903 42.4053 63.5083 42.4781 66.4138 42.4781C67.5415 42.4781 69.0745 42.467 71.1681 42.4407C72.0683 42.4293 72.7888 41.6905 72.7777 40.7904C72.7663 39.8971 72.0389 39.1811 71.1482 39.1811C71.1416 39.1811 71.1343 39.1811 71.1276 39.1814C69.5896 39.2007 67.9566 39.2131 66.622 39.2153C67.4497 38.1104 68.6144 36.5217 70.2056 34.2487C71.1413 32.9118 72.15 31.2102 72.1496 29.5212C72.1493 26.5306 69.7162 24.0974 66.7255 24.0974C64.1395 24.0974 61.9009 25.937 61.4032 28.4717C61.2298 29.3548 61.8051 30.2116 62.6885 30.3853C63.57 30.5587 64.4284 29.9838 64.6021 29.1001C64.8005 28.0901 65.6937 27.357 66.7258 27.357C67.3542 27.357 67.9607 27.6374 68.3695 28.1145C69.5459 29.4877 68.3996 31.1444 67.5352 32.3793C65.1855 35.7364 63.7832 37.5719 63.0299 38.5581V38.5581Z" fill="#6E7F89"/>
<path d="M54.9301 26.8891C55.6481 26.3509 55.7961 25.333 55.2598 24.6126C54.7226 23.8905 53.7019 23.7396 52.9792 24.2775C51.9164 25.0685 51.0054 26.1168 50.223 27.1758C49.4329 28.2449 48.7666 29.4058 48.248 30.6306C47.2893 32.8945 46.5368 35.401 47.3658 37.8371C48.1752 40.2155 50.3884 41.8842 52.9181 41.8842C56.1812 41.8842 58.8359 39.2296 58.8359 35.9665C58.8359 32.7034 56.1812 30.0487 52.9178 30.0487C52.6713 30.0487 52.4299 30.0687 52.1913 30.0981C53.4674 28.0234 54.8947 26.916 54.9301 26.8891ZM52.9181 33.3083C54.3837 33.3083 55.5762 34.5006 55.5762 35.9661C55.5762 37.4317 54.3837 38.624 52.9181 38.624C51.4525 38.624 50.2603 37.4317 50.2603 35.9661C50.2603 34.5006 51.4525 33.3083 52.9181 33.3083Z" fill="#6E7F89"/>
<path d="M82.4964 27.9285C81.5962 27.9285 80.8666 28.6584 80.8666 29.5583V40.8464C80.8666 41.7465 81.5962 42.4762 82.4964 42.4762C83.3966 42.4762 84.1262 41.7462 84.1262 40.8464V38.4392L87.8373 42.0196C88.1537 42.3246 88.5616 42.4765 88.9688 42.4765C89.3957 42.4765 89.8222 42.3097 90.1424 41.9782C90.7673 41.3305 90.7489 40.2984 90.1009 39.6735L85.2349 34.9789L89.6716 30.9008C90.3344 30.2917 90.3778 29.2605 89.7687 28.5977C89.1587 27.9348 88.1284 27.8914 87.4656 28.5008L84.1265 31.57V29.5586C84.1262 28.6581 83.3966 27.9285 82.4964 27.9285V27.9285Z" fill="#6E7F89"/>
<path d="M99.9559 31.1878C100.761 31.1878 101.536 31.4244 102.199 31.8725C102.945 32.3762 103.958 32.18 104.462 31.4346C104.966 30.6885 104.77 29.6753 104.024 29.1716C102.82 28.3581 101.414 27.9285 99.9559 27.9285C95.9452 27.9285 92.6821 31.1916 92.6821 35.2023C92.6821 39.2131 95.9452 42.4762 99.9559 42.4762C103.784 42.4762 106.458 39.4852 106.458 35.2023C106.458 34.3021 105.728 33.5725 104.828 33.5725H101.452C100.551 33.5725 99.8218 34.3021 99.8218 35.2023C99.8218 36.1025 100.551 36.8321 101.452 36.8321H102.978C102.593 38.1506 101.67 39.2162 99.9559 39.2162C97.7427 39.2162 95.942 37.4156 95.942 35.202C95.942 32.9884 97.7423 31.1878 99.9559 31.1878Z" fill="#6E7F89"/>
<path d="M125.405 49.8765H118.879C128.782 49.8765 132.92 35.3851 124.84 28.8817C122.135 26.7051 119.316 24.7146 116.399 22.907C121.659 25.2563 126.69 28.0856 131.367 31.3974C139.446 37.1209 135.308 49.8765 125.405 49.8765Z" fill="#7A8C98"/>
<path d="M86.3299 152.213H67.1285C65.778 152.213 64.6836 151.118 64.6836 149.768C64.6836 148.418 65.778 147.323 67.1285 147.323H86.3299C87.6803 147.323 88.7747 148.418 88.7747 149.768C88.7747 151.118 87.6803 152.213 86.3299 152.213Z" fill="#8D9CA8"/>
<path d="M86.3299 141.6H67.1285C65.778 141.6 64.6836 140.505 64.6836 139.155C64.6836 137.805 65.778 136.71 67.1285 136.71H86.3299C87.6803 136.71 88.7747 137.805 88.7747 139.155C88.7747 140.505 87.6803 141.6 86.3299 141.6Z" fill="#8D9CA8"/>
</svg>
